<svg version="1.1" id="Layer_1" xmlns="http://www.w3.org/2000/svg" xmlns:xlink="http://www.w3.org/1999/xlink" x="0px" y="0px"
	 width="100%" viewBox="0 0 960 528" enable-background="new 0 0 960 528" xml:space="preserve">
<path fill="#000000" opacity="1.000000" stroke="none" 
	d="
M201.865311,386.908203 
	C196.533081,390.024170 196.067352,394.595062 196.101364,399.915588 
	C196.213821,417.505585 186.016861,429.640198 169.263000,432.530060 
	C153.691956,435.215881 137.592102,423.987976 134.735123,408.450684 
	C132.146042,394.370178 131.515167,392.845764 123.351082,381.709534 
	C117.084007,373.160889 114.750435,363.454651 114.858055,353.034851 
	C114.892838,349.667969 115.542534,346.165405 119.735161,346.290192 
	C123.866356,346.413177 124.576103,349.907684 124.285477,353.279053 
	C122.731552,371.305389 136.095825,386.141327 150.972137,388.569916 
	C159.553650,389.970886 168.123352,390.085571 176.789276,388.823700 
	C188.222458,387.158905 196.491806,381.296753 201.991608,371.306732 
	C204.531387,366.693390 205.422211,361.676392 205.707947,356.446747 
	C206.280655,345.965057 204.594345,335.520111 205.500031,325.026489 
	C206.605515,312.217682 211.677032,301.296265 220.519257,292.098175 
	C232.508011,279.626953 240.203461,265.123413 242.910736,247.869003 
	C247.676285,217.496918 233.643005,186.059799 207.546188,169.585526 
	C160.873825,140.122360 99.341461,165.593552 87.896599,219.623260 
	C82.260262,246.231644 88.902870,270.223389 107.736252,290.219604 
	C115.965225,298.956696 121.958473,308.710724 123.957413,320.558533 
	C124.595886,324.342804 126.337578,325.060486 129.608444,325.028687 
	C139.771774,324.929840 149.937042,324.978210 160.101044,325.047424 
	C162.082596,325.060913 164.113159,325.213745 166.029175,325.680023 
	C168.482208,326.277039 169.510971,328.162628 169.197983,330.624847 
	C168.905472,332.925964 167.426102,334.263245 165.146927,334.270203 
	C150.151230,334.316101 135.154984,334.335175 120.159760,334.234650 
	C117.145241,334.214447 115.842598,332.145782 115.681313,329.258606 
	C114.951805,316.199951 109.282837,305.682709 100.551285,295.967773 
	C77.551392,270.377563 70.435699,240.547653 81.629616,207.871216 
	C92.930206,174.883347 116.770210,154.805923 151.167694,149.002975 
	C199.626389,140.827850 245.012894,174.307297 252.131439,222.882767 
	C256.361237,251.746002 247.845352,276.848450 227.754318,297.943207 
	C220.625031,305.428619 215.886993,314.041473 214.696167,324.303131 
	C213.851517,331.581604 214.107727,338.939972 214.782928,346.249634 
	C216.190964,361.492462 213.672043,375.484467 201.865311,386.908203 
M178.289017,398.244476 
	C166.746994,399.739594 155.241852,399.083893 143.824661,397.052734 
	C142.451416,408.081238 146.119675,416.037811 154.571274,420.811523 
	C162.701401,425.403625 170.645142,424.551971 177.928696,419.108337 
	C185.217636,413.660645 187.566299,406.084015 186.383347,397.218719 
	C183.595871,396.830658 181.407059,397.781128 178.289017,398.244476 
z"/>
<path fill="#000000" opacity="1.000000" stroke="none" 
	d="
M357.898865,261.342438 
	C344.093872,261.343018 330.771881,261.212494 317.455139,261.418121 
	C313.255249,261.483002 311.535400,260.386353 311.580139,255.847672 
	C311.780334,235.536713 311.746735,215.222107 311.602295,194.910202 
	C311.574005,190.930542 313.046509,189.723694 316.873718,189.766724 
	C330.524902,189.920349 344.179382,189.761841 357.831421,189.871658 
	C360.461060,189.892807 363.180695,190.276917 365.694244,191.037430 
	C373.449402,193.383881 378.327240,198.645111 378.973572,206.769073 
	C379.571533,214.285400 376.662445,220.420959 369.519592,223.809998 
	C369.397766,224.842041 370.194427,224.967041 370.714081,225.273560 
	C379.076721,230.206192 382.347473,237.985962 379.957031,247.309250 
	C377.939240,255.179276 370.642334,260.836639 361.879883,261.302246 
	C360.717163,261.364044 359.549347,261.330627 357.898865,261.342438 
M338.923157,233.222260 
	C333.429077,233.360138 335.747711,237.564117 335.370392,240.246597 
	C334.956879,243.186691 336.870880,243.910156 339.385040,243.875458 
	C343.370850,243.820450 347.359253,243.899490 351.343445,243.798416 
	C354.698792,243.713348 356.638458,241.967194 356.616730,238.514526 
	C356.595062,235.068588 354.614136,233.346481 351.287933,233.253159 
	C347.470215,233.146057 343.647614,233.211838 338.923157,233.222260 
M352.829559,207.516830 
	C349.108551,205.322968 345.012695,206.846970 341.127960,206.324524 
	C336.532776,205.706528 335.143585,207.566498 335.164062,212.158035 
	C335.183960,216.613617 336.640747,218.180725 340.945923,217.702225 
	C343.241669,217.447083 345.591034,217.720047 347.911896,217.636230 
	C354.307373,217.405243 356.198486,214.085464 352.829559,207.516830 
z"/>
<path fill="#000000" opacity="1.000000" stroke="none" 
	d="
M878.015564,233.976379 
	C875.185913,233.965393 872.844910,234.074478 870.521790,233.917679 
	C866.833069,233.668716 865.111328,234.866760 865.059937,238.961288 
	C865.004761,243.356903 867.219971,243.767593 870.683472,243.720398 
	C880.180420,243.590958 889.682190,243.784821 899.178162,243.624741 
	C902.809265,243.563522 904.269714,244.853210 904.224548,248.539734 
	C904.033813,264.108490 905.785461,261.128845 892.191406,261.296997 
	C877.195740,261.482544 862.193726,261.193420 847.199280,261.423676 
	C842.752869,261.491943 841.492737,259.974030 841.533203,255.656052 
	C841.720520,235.660446 841.753052,215.660614 841.524536,195.665924 
	C841.469971,190.894455 843.262268,189.726486 847.658386,189.772415 
	C864.320984,189.946518 880.987976,189.952072 897.649963,189.744949 
	C902.049561,189.690277 903.515747,191.202118 903.403748,195.530304 
	C903.028198,210.047760 905.310425,207.853561 890.995850,208.055145 
	C884.664795,208.144302 878.330200,207.988190 871.999084,208.076202 
	C868.879517,208.119553 865.068054,206.935486 865.095947,212.531067 
	C865.122803,217.928391 868.805237,216.604630 871.706360,216.647552 
	C878.703918,216.751068 885.710510,216.862549 892.700562,216.610672 
	C896.696472,216.466660 897.987610,218.105072 897.956970,221.861771 
	C897.841553,236.008759 898.927246,233.715256 886.511169,233.964996 
	C883.845886,234.018600 881.178589,233.975662 878.015564,233.976379 
z"/>
<path fill="#000000" opacity="1.000000" stroke="none" 
	d="
M597.944214,189.829956 
	C607.347290,189.791611 607.397705,189.791962 607.334473,198.761841 
	C607.266541,208.385681 608.705872,208.132141 597.817932,208.098434 
	C589.825867,208.073700 581.832336,208.165482 573.842285,208.034897 
	C570.459900,207.979614 569.091003,209.203796 569.113770,212.704071 
	C569.137024,216.282501 571.006897,216.740662 573.888000,216.707245 
	C581.712585,216.616501 589.540527,216.769409 597.363770,216.634933 
	C600.534546,216.580444 601.940308,217.792557 601.954407,220.963928 
	C602.024597,236.752686 603.004456,233.662460 589.975586,233.967621 
	C584.983459,234.084549 579.982666,234.083771 574.991943,233.933350 
	C571.334229,233.823090 569.043518,234.419357 569.068420,239.015961 
	C569.092468,243.456314 571.356018,243.749680 574.752808,243.709549 
	C584.242126,243.597397 593.735535,243.782898 603.223450,243.622696 
	C606.857178,243.561325 608.284851,244.844116 608.236145,248.534729 
	C608.031067,264.080933 609.805542,261.133392 596.233093,261.300232 
	C581.250122,261.484406 566.261108,261.205292 551.278992,261.422089 
	C546.938354,261.484924 545.486328,260.162842 545.529785,255.743073 
	C545.728149,235.598114 545.701416,215.449554 545.554810,195.303741 
	C545.525085,191.225662 546.847534,189.728714 550.998962,189.773621 
	C566.481873,189.941177 581.967773,189.834290 597.944214,189.829956 
z"/>
<path fill="#000000" opacity="1.000000" stroke="none" 
	d="
M716.213440,244.758301 
	C713.740417,253.471954 707.905884,258.360718 699.909058,260.596130 
	C687.724304,264.002258 675.517273,263.513885 663.660278,259.111694 
	C655.251831,255.989822 650.569580,248.681839 650.517578,240.284607 
	C650.501648,237.702103 651.271729,236.625290 653.876892,236.668762 
	C658.869080,236.752060 663.866943,236.795425 668.856018,236.643997 
	C671.413391,236.566391 672.180542,238.007904 672.996826,240.024811 
	C675.264648,245.628189 687.381042,247.930389 691.556519,243.656235 
	C693.568787,241.596420 692.649902,238.813583 689.119568,237.650940 
	C685.028748,236.303711 680.759644,235.504868 676.585388,234.401794 
	C673.216736,233.511597 669.814575,232.693329 666.530884,231.546570 
	C656.397827,228.007751 651.540527,221.668030 651.488342,212.206848 
	C651.430420,201.724167 655.857971,195.280914 666.302307,191.642303 
	C679.249084,187.131836 692.111450,187.365067 704.541870,193.613480 
	C710.255493,196.485535 713.573608,201.195862 714.825012,207.529312 
	C715.493958,210.914825 714.895142,212.607666 711.055298,212.495834 
	C706.234619,212.355438 701.404175,212.492630 696.579346,212.582291 
	C694.540222,212.620163 693.412170,211.979980 692.449280,209.915329 
	C690.242554,205.183395 681.389099,203.510681 677.273193,206.800552 
	C674.392273,209.103302 675.232483,211.320007 678.103394,212.498962 
	C681.459473,213.877151 685.067200,214.662369 688.593506,215.600723 
	C692.604980,216.668198 696.707092,217.427811 700.665039,218.658173 
	C714.081421,222.828674 718.810303,230.710373 716.213440,244.758301 
z"/>
<path fill="#000000" opacity="1.000000" stroke="none" 
	d="
M831.348389,251.041931 
	C831.193237,262.731323 832.680115,261.263824 821.468018,261.315674 
	C803.643372,261.398132 785.818176,261.355682 767.993164,261.336304 
	C762.265137,261.330048 760.667969,259.005463 762.724976,253.528336 
	C763.298401,252.001266 764.312866,250.612640 765.265625,249.259445 
	C773.703369,237.275299 782.183350,225.320847 790.617920,213.334488 
	C791.543762,212.018890 792.743835,210.785660 792.924927,208.082672 
	C785.822510,208.082672 778.916809,208.094452 772.011108,208.079453 
	C764.716614,208.063614 764.659363,208.052124 764.701599,200.978455 
	C764.777527,188.262558 763.211365,189.921234 775.900940,189.854813 
	C791.893005,189.771088 807.886047,189.795029 823.878174,189.870453 
	C826.067627,189.880768 828.937561,188.759796 830.214478,191.407150 
	C831.584900,194.248352 831.098022,197.268921 829.235596,199.932785 
	C825.418945,205.391922 821.596680,210.847153 817.771240,216.300171 
	C811.673096,224.992859 805.570435,233.682419 799.202637,242.753677 
	C803.495300,244.327576 807.305481,243.515121 811.014587,243.636612 
	C815.507629,243.783783 820.009277,243.661743 824.507080,243.675491 
	C831.268188,243.696152 831.268188,243.703262 831.348389,251.041931 
z"/>
<path fill="#000000" opacity="1.000000" stroke="none" 
	d="
M445.365601,219.310867 
	C437.703949,228.453384 435.419220,238.549210 436.039337,250.089508 
	C436.739563,263.119965 437.725891,261.217133 425.233765,261.318451 
	C412.659363,261.420410 412.092285,261.304108 412.830994,248.730057 
	C413.438873,238.383377 410.960632,229.719345 404.679352,221.471588 
	C398.649658,213.554169 393.651398,204.847977 388.264008,196.447281 
	C387.141327,194.696701 385.612915,193.054230 385.562073,190.067612 
	C393.862152,190.067612 401.919312,189.958160 409.969635,190.144821 
	C411.975067,190.191315 412.684357,192.388382 413.599243,193.954178 
	C417.108521,199.960175 420.609283,205.971115 424.449615,212.557190 
	C429.121643,206.742279 432.068359,200.635727 435.322174,194.783096 
	C437.361725,191.114578 439.754211,189.505081 444.002106,189.733124 
	C450.082336,190.059494 456.193115,189.816269 462.290863,189.816269 
	C462.627197,190.276520 462.963531,190.736755 463.299866,191.197006 
	C457.385284,200.466049 451.470673,209.735107 445.365601,219.310867 
z"/>
<path fill="#000000" opacity="1.000000" stroke="none" 
	d="
M822.727173,330.394135 
	C820.593384,337.132965 818.177795,344.015503 816.586914,351.083710 
	C815.426392,356.239441 811.893127,355.264923 808.524536,355.360779 
	C805.164795,355.456360 801.955078,355.830658 800.879578,351.143951 
	C799.101990,343.397980 796.801208,335.772034 794.443909,328.133911 
	C795.293335,335.587128 794.904236,343.038452 795.066345,350.477203 
	C795.146606,354.159088 793.729309,355.383484 790.078430,355.425751 
	C779.570068,355.547394 779.575378,355.679749 779.579773,345.422089 
	C779.584778,333.765228 779.717102,322.105927 779.510193,310.452759 
	C779.436951,306.330963 780.885010,304.977905 784.973450,304.886871 
	C802.388062,304.499054 802.377380,304.396149 806.757019,321.193573 
	C807.629150,324.538391 808.592468,327.859436 809.865967,332.465454 
	C812.040344,324.096558 814.012146,316.957520 815.715881,309.755127 
	C816.538635,306.276886 818.272766,304.713196 821.941467,304.897644 
	C826.426331,305.123108 830.930908,304.981567 835.426697,304.955719 
	C838.087341,304.940399 839.359131,306.081207 839.347839,308.863068 
	C839.289917,323.183960 839.323730,337.505188 839.293335,351.826233 
	C839.290588,353.125977 839.394226,354.835236 837.665771,355.042175 
	C833.205933,355.576080 828.676025,355.830597 824.267761,354.891846 
	C822.198242,354.451080 822.740356,352.170502 822.731934,350.598816 
	C822.696289,343.938660 822.766968,337.277924 822.727173,330.394135 
z"/>
<path fill="#000000" opacity="1.000000" stroke="none" 
	d="
M501.000000,189.815399 
	C510.991516,189.815689 520.487732,189.991714 529.972412,189.737396 
	C534.257385,189.622498 536.000549,191.032776 535.951172,195.393265 
	C535.760498,212.224655 537.289856,208.881302 522.697754,209.145630 
	C511.025970,209.357056 512.465698,208.328323 512.417847,219.246582 
	C512.363892,231.568634 512.292664,243.892715 512.468872,256.212463 
	C512.524414,260.100220 511.251587,261.640076 507.287567,261.396271 
	C502.974640,261.130981 498.620514,261.144043 494.306335,261.402679 
	C490.185913,261.649689 488.742920,260.068542 488.794495,255.948959 
	C488.963226,242.463242 488.609894,228.968002 488.951202,215.488937 
	C489.083038,210.283463 487.297089,208.667435 482.360809,209.114868 
	C478.561829,209.459259 474.701721,209.062912 470.878815,209.228134 
	C467.368500,209.379837 465.532898,208.187424 465.710388,204.402206 
	C465.866150,201.079529 465.859100,197.736481 465.687683,194.414627 
	C465.503418,190.844284 467.255371,189.775284 470.526978,189.801407 
	C480.517395,189.881256 490.508911,189.821228 501.000000,189.815399 
z"/>
<path fill="#000000" opacity="1.000000" stroke="none" 
	d="
M637.981201,314.178223 
	C643.621155,323.805115 643.781311,333.588562 639.784302,343.264099 
	C636.346802,351.585449 628.884399,354.698669 620.485718,355.219360 
	C613.185669,355.671906 605.834045,355.220276 598.510437,355.391998 
	C594.954895,355.475372 593.852417,353.868225 593.871399,350.585388 
	C593.949341,337.096588 593.963257,323.606842 593.894531,310.118011 
	C593.876587,306.589783 595.228516,304.921753 598.887878,304.951660 
	C606.873779,305.016998 614.874817,304.573730 622.820557,305.719849 
	C628.794800,306.581573 633.968445,308.980835 637.981201,314.178223 
M624.767517,334.893616 
	C624.741394,331.587524 624.986206,328.251526 624.625061,324.982452 
	C624.096985,320.202087 620.376953,317.882446 614.809021,318.165527 
	C609.430664,318.439026 611.408630,322.489594 611.211487,325.199249 
	C610.935974,328.985260 611.126953,332.806610 611.150146,336.612640 
	C611.186890,342.647980 613.423035,344.207947 619.116333,342.113098 
	C622.102905,341.014252 624.174744,339.033997 624.767517,334.893616 
z"/>
<path fill="#fbc117" opacity="1.000000" stroke="none" 
	d="
M187.706284,255.762299 
	C187.567245,257.687927 187.371948,259.182007 187.397598,260.672272 
	C187.441055,263.197144 186.257843,264.270905 183.777603,264.265503 
	C170.977234,264.237640 158.176697,264.231628 145.376373,264.267944 
	C142.764816,264.275360 141.240128,263.253784 141.216904,260.521973 
	C141.157578,253.541275 141.094498,246.560333 141.098221,239.579544 
	C141.099457,237.295486 142.155060,236.091232 144.636978,235.650360 
	C152.249329,234.298111 157.145233,229.760452 158.804245,222.159073 
	C159.543137,218.773514 161.208557,217.516464 164.664154,217.644516 
	C170.806961,217.872116 176.965820,217.814163 183.114029,217.686554 
	C186.216431,217.622162 187.554276,218.551407 187.526749,221.946854 
	C187.436600,233.072922 187.651657,244.201447 187.706284,255.762299 
z"/>
<path fill="#000000" opacity="1.000000" stroke="none" 
	d="
M726.571533,336.076263 
	C720.793274,336.194397 715.466125,336.251617 710.138916,336.248993 
	C707.909729,336.247894 706.187927,336.617615 706.188232,339.450043 
	C706.188477,342.277924 707.902283,342.660583 710.135376,342.654877 
	C716.295837,342.639099 722.466492,342.899139 728.613831,342.622284 
	C734.060486,342.376984 733.259338,345.969818 733.304626,349.262482 
	C733.349548,352.523010 733.685303,355.539307 728.668640,355.427826 
	C717.019287,355.168976 705.358948,355.251038 693.705811,355.406952 
	C689.951111,355.457214 688.781738,353.919922 688.815979,350.360443 
	C688.944092,337.041443 688.978333,323.719788 688.851379,310.401031 
	C688.811707,306.244019 690.556824,304.864594 694.545715,304.915863 
	C705.532837,305.057037 716.525818,305.084412 727.511108,304.876617 
	C732.166443,304.788605 733.222229,307.076447 732.955322,311.069397 
	C732.707031,314.783020 733.153503,318.587097 727.376160,318.253601 
	C721.568481,317.918365 715.725403,318.194672 709.897888,318.203857 
	C707.892822,318.207001 706.171631,318.555664 706.270020,321.153809 
	C706.358887,323.499176 708.010376,323.678253 709.774719,323.685089 
	C713.937195,323.701172 718.104675,323.588165 722.260254,323.761993 
	C724.570007,323.858582 728.018188,322.565155 728.642151,325.888458 
	C729.265442,329.207825 730.666626,333.150208 726.571533,336.076263 
z"/>
<path fill="#000000" opacity="1.000000" stroke="none" 
	d="
M750.681946,261.004242 
	C744.415222,261.218109 738.597900,261.204010 732.784363,261.346710 
	C729.801392,261.419922 728.659119,260.160675 728.667236,257.194641 
	C728.724670,236.248627 728.727539,215.302216 728.648376,194.356323 
	C728.636475,191.196579 729.788696,189.775909 733.004211,189.836578 
	C737.989319,189.930634 742.978333,189.877289 747.964966,189.820206 
	C750.742676,189.788406 752.327087,190.734512 752.318665,193.840683 
	C752.260681,215.118988 752.279968,236.397491 752.257385,257.675934 
	C752.256165,258.837128 752.171936,260.023010 750.681946,261.004242 
z"/>
<path fill="#000000" opacity="1.000000" stroke="none" 
	d="
M320.239044,354.869019 
	C314.906799,355.083588 309.960510,355.083588 305.169708,355.083588 
	C303.999451,353.323059 304.740326,351.933594 305.240295,350.573151 
	C310.283630,336.850494 315.463989,323.176422 320.325806,309.389984 
	C321.554230,305.906555 323.496613,304.808258 326.951569,304.903137 
	C343.682190,305.362488 339.735626,302.085449 345.613800,317.775024 
	C349.518585,328.197327 353.305908,338.663971 357.081848,349.133820 
	C357.686035,350.809113 358.782745,352.431610 357.989655,355.208649 
	C353.201385,355.208649 348.154907,355.240448 343.109406,355.183502 
	C342.019531,355.171234 341.136658,354.375244 340.988953,353.356720 
	C340.215149,348.020966 336.392731,348.086853 332.405792,348.354614 
	C331.909119,348.388000 331.398499,348.424377 330.910889,348.350372 
	C325.702850,347.559967 321.787445,348.854309 320.239044,354.869019 
M334.521179,331.761841 
	C333.513947,328.679688 332.506714,325.597534 331.141052,321.418610 
	C329.392670,326.977203 327.747742,331.348907 327.119324,336.030975 
	C334.597595,337.405212 335.214325,337.101898 334.521179,331.761841 
z"/>
<path fill="#000000" opacity="1.000000" stroke="none" 
	d="
M500.532227,337.654053 
	C504.036865,328.066681 507.507507,318.880371 510.714142,309.602814 
	C511.871460,306.254395 513.770569,304.979431 517.302368,304.890991 
	C531.175232,304.543549 531.213928,304.431885 535.927307,317.211304 
	C539.957092,328.137238 543.888489,339.099579 547.833679,350.056549 
	C548.327942,351.429108 549.233215,352.741180 548.619812,354.946075 
	C543.782104,355.768402 538.703369,355.344147 533.642944,355.154022 
	C532.505554,355.111298 531.739624,354.269409 531.574951,353.269287 
	C530.700439,347.956696 526.823669,348.159393 522.866699,348.343048 
	C520.705688,348.443329 518.537415,348.383514 516.372498,348.406006 
	C515.148010,348.418732 513.674011,348.688934 513.431519,349.868896 
	C512.009033,356.789398 506.659973,355.342407 502.041534,355.332184 
	C499.772858,355.327148 497.390991,355.869476 494.845703,354.333862 
	C495.936188,348.689026 498.661774,343.508392 500.532227,337.654053 
M518.888489,330.213104 
	C518.479858,332.086670 517.309082,333.834137 517.920837,336.087830 
	C520.278381,336.853027 522.979248,337.500641 524.891663,335.908112 
	C526.849609,334.277618 524.894775,331.871460 524.422058,329.932526 
	C523.819946,327.463287 523.444702,324.807739 521.717712,322.505157 
	C520.140198,324.708221 519.880554,327.186218 518.888489,330.213104 
z"/>
<path fill="#000000" opacity="1.000000" stroke="none" 
	d="
M433.464417,319.527832 
	C426.016052,315.010223 420.687683,317.439606 418.964508,325.518829 
	C418.136322,329.401978 418.501221,333.133545 419.389862,336.880554 
	C420.344177,340.904419 422.942566,343.364868 427.066101,343.538452 
	C431.006592,343.704315 434.460754,342.232849 435.550476,338.057800 
	C436.328491,335.076874 438.111267,334.510315 440.690887,334.644501 
	C442.019592,334.713593 443.354950,334.649445 444.687317,334.652740 
	C452.329834,334.671600 453.227417,336.097229 450.423126,343.512207 
	C448.042389,349.807159 443.347046,353.479706 437.059113,355.182861 
	C431.019836,356.818695 424.903839,356.829376 418.790344,355.366669 
	C410.208099,353.313293 404.865479,348.053131 402.638123,339.497864 
	C401.267822,334.234528 401.117279,328.879486 402.065125,323.650665 
	C404.514587,310.138214 413.995819,303.591492 429.127808,304.434357 
	C438.514465,304.957245 446.435272,307.784943 450.348053,317.324799 
	C451.125275,319.219757 451.362549,321.169373 451.529510,323.161835 
	C451.615051,324.183105 451.720551,325.480072 450.706879,325.830688 
	C447.656433,326.885651 444.411835,325.943542 441.306488,326.385040 
	C437.343506,326.948456 435.485626,325.118958 434.720184,321.517090 
	C434.589722,320.903259 434.070679,320.371979 433.464417,319.527832 
z"/>
<path fill="#000000" opacity="1.000000" stroke="none" 
	d="
M937.291260,307.317780 
	C933.360535,313.721161 929.932068,320.075439 925.614441,325.753571 
	C920.596985,332.352051 918.648987,339.352020 919.198914,347.567596 
	C919.718689,355.333557 919.307861,355.363098 911.386230,355.359406 
	C909.720520,355.358643 908.051880,355.269287 906.389648,355.339508 
	C903.588379,355.457825 902.185303,354.066528 902.690857,351.411011 
	C905.039490,339.074341 898.957336,329.678253 892.344299,320.308838 
	C889.221863,315.884857 885.925476,311.480896 883.667114,306.299957 
	C897.862732,301.185638 906.099609,307.040649 910.237244,320.954895 
	C914.264893,316.940308 915.955322,312.941925 917.993286,309.260437 
	C919.759277,306.070374 922.058350,304.697357 925.629150,304.907715 
	C928.450867,305.073975 931.292847,304.863831 934.122131,304.948273 
	C935.521790,304.990051 937.331299,304.649658 937.291260,307.317780 
z"/>
<path fill="#000000" opacity="1.000000" stroke="none" 
	d="
M80.365456,184.751602 
	C80.429871,190.325531 77.793610,192.352203 73.482140,190.112610 
	C68.346878,187.445129 63.394993,184.418640 58.412663,181.465042 
	C55.611179,179.804260 54.332607,177.306076 56.200657,174.371994 
	C57.988884,171.563309 60.817463,171.948029 63.217503,173.530838 
	C68.838791,177.238037 75.564140,179.220749 80.365456,184.751602 
z"/>
<path fill="#000000" opacity="1.000000" stroke="none" 
	d="
M95.653709,161.510757 
	C91.623421,156.837250 87.826065,152.447418 84.122337,147.979965 
	C82.054184,145.485367 80.783669,142.681610 83.911682,140.173584 
	C86.833588,137.830795 89.182922,139.605789 91.149757,141.917374 
	C94.696014,146.085236 98.212875,150.278885 101.687630,154.506454 
	C103.421944,156.616501 104.118362,159.009323 102.142532,161.276215 
	C100.361496,163.319656 98.138641,163.379364 95.653709,161.510757 
z"/>
<path fill="#000000" opacity="1.000000" stroke="none" 
	d="
M274.467896,176.266922 
	C274.363922,177.437332 274.503998,178.568939 274.018219,179.007645 
	C268.156738,184.301529 261.215179,187.872635 253.996750,190.847488 
	C252.212723,191.582718 250.565735,190.043564 249.649597,188.249512 
	C248.665283,186.321976 249.099747,184.406601 250.651306,183.281937 
	C256.317444,179.174774 262.298462,175.502609 268.741180,172.768326 
	C271.329865,171.669693 273.675385,172.774643 274.467896,176.266922 
z"/>
<path fill="#000000" opacity="1.000000" stroke="none" 
	d="
M240.461609,154.442230 
	C238.389740,156.843719 236.613449,159.033295 234.712982,161.109192 
	C232.905365,163.083664 230.669601,163.562531 228.509552,161.852325 
	C226.164032,159.995255 226.068420,157.457764 227.824936,155.228836 
	C231.618271,150.415329 235.575195,145.726593 239.578583,141.084610 
	C241.430634,138.937103 243.837189,138.338394 246.181137,140.250931 
	C248.520676,142.159851 248.407303,144.606262 246.691650,146.878372 
	C244.796234,149.388611 242.707474,151.752838 240.461609,154.442230 
z"/>
<path fill="#000000" opacity="1.000000" stroke="none" 
	d="
M130.891327,129.275864 
	C132.030762,132.452988 133.142609,135.232605 133.977356,138.093079 
	C134.728592,140.667389 133.722244,142.786133 131.287933,143.830444 
	C128.710388,144.936157 126.517403,143.791275 125.557281,141.392258 
	C123.156738,135.394119 120.937706,129.314346 118.913994,123.178879 
	C118.113190,120.751038 119.010658,118.455818 121.625717,117.496117 
	C124.245308,116.534760 126.240456,117.742912 127.315262,120.112381 
	C128.613907,122.975327 129.613861,125.973763 130.891327,129.275864 
z"/>
<path fill="#000000" opacity="1.000000" stroke="none" 
	d="
M196.276260,141.434906 
	C196.532974,133.135696 200.315994,126.261070 203.256607,119.152847 
	C204.036957,117.266502 206.295685,116.709511 208.462967,117.609520 
	C210.589035,118.492416 211.760590,120.233696 211.196793,122.343483 
	C209.359802,129.217468 207.230286,136.086990 203.760147,142.272781 
	C201.962997,145.476349 198.729126,144.892670 196.276260,141.434906 
z"/>
<path fill="#000000" opacity="1.000000" stroke="none" 
	d="
M169.333893,131.627136 
	C169.240219,135.229385 167.794205,137.364807 164.502197,137.036804 
	C161.472549,136.734924 160.652374,134.314743 160.665649,131.542267 
	C160.692688,125.895195 160.701691,120.247688 160.662048,114.600754 
	C160.640533,111.535423 161.712860,109.134491 165.056244,109.194496 
	C168.359924,109.253792 169.392715,111.655998 169.356323,114.722961 
	C169.291306,120.203354 169.340408,125.685097 169.333893,131.627136 
z"/>
<path fill="#000000" opacity="1.000000" stroke="none" 
	d="
M184.955566,189.906342 
	C190.015366,188.421005 192.016129,189.642685 192.280258,194.178146 
	C192.454300,197.167068 192.393066,200.177902 192.280106,203.172989 
	C192.173843,205.990570 190.882385,208.066833 187.816345,208.161026 
	C184.992950,208.247772 183.378036,206.350998 183.283005,203.800766 
	C183.112518,199.226227 181.929535,194.479691 184.955566,189.906342 
z"/>
<path fill="#000000" opacity="1.000000" stroke="none" 
	d="
M190.306625,292.222412 
	C189.175110,292.686676 188.344666,293.190552 187.603561,293.082367 
	C183.769775,292.522766 182.810410,289.602325 183.111633,286.448883 
	C183.524628,282.125122 180.912537,276.705017 186.569092,274.008057 
	C188.788162,272.950043 191.394196,274.241272 191.727921,276.549103 
	C192.471771,281.692902 193.706879,287.038116 190.306625,292.222412 
z"/>
<path fill="#000000" opacity="1.000000" stroke="none" 
	d="
M208.882629,268.348999 
	C206.428619,268.324036 204.431793,268.384521 202.447525,268.253906 
	C199.819839,268.080963 198.005661,266.771423 197.819000,264.000397 
	C197.626862,261.148499 199.406708,259.609894 201.983688,259.373718 
	C205.274338,259.072113 208.611862,259.038055 211.915146,259.191223 
	C214.869888,259.328247 217.213852,260.781921 217.017883,264.072754 
	C216.842773,267.013184 214.683105,268.267181 211.834717,268.323853 
	C211.005096,268.340363 210.175186,268.341339 208.882629,268.348999 
z"/>
<path fill="#000000" opacity="1.000000" stroke="none" 
	d="
M122.975540,268.342102 
	C120.685638,268.298431 118.838852,268.418701 117.041862,268.173676 
	C114.633194,267.845306 113.055344,266.309052 112.976662,263.861938 
	C112.897415,261.396851 114.357628,259.656433 116.814049,259.443237 
	C120.269424,259.143341 123.765640,259.073242 127.231705,259.215057 
	C129.915649,259.324829 132.227509,260.468536 132.192017,263.648804 
	C132.154984,266.968445 129.968033,268.220856 126.926437,268.320374 
	C125.765556,268.358368 124.602753,268.337463 122.975540,268.342102 
z"/>
<path fill="#000000" opacity="1.000000" stroke="none" 
	d="
M146.942169,284.780579 
	C146.858353,286.216339 146.830795,287.214905 146.698715,288.199463 
	C146.333252,290.923950 145.155670,293.178772 142.084961,293.050140 
	C138.775330,292.911438 137.720154,290.471863 137.685623,287.501678 
	C137.652847,284.680603 137.647995,281.858276 137.694412,279.037537 
	C137.740784,276.220123 138.920975,274.084900 141.927811,273.845062 
	C145.354782,273.571716 146.538071,275.969177 146.848770,278.867767 
	C147.042343,280.673767 146.927292,282.512817 146.942169,284.780579 
z"/>
<path fill="#000000" opacity="1.000000" stroke="none" 
	d="
M114.957733,244.586090 
	C111.961174,239.956146 112.827675,237.449478 117.539925,236.440994 
	C121.312553,235.633621 125.138786,235.717102 128.893646,236.706848 
	C131.349640,237.354218 132.462692,239.085587 132.181244,241.550003 
	C131.921631,243.823318 130.488647,245.223602 128.197495,245.237762 
	C123.900017,245.264297 119.575844,245.841141 114.957733,244.586090 
z"/>
<path fill="#000000" opacity="1.000000" stroke="none" 
	d="
M202.366852,245.304779 
	C199.191422,244.930725 197.670746,243.399994 197.780991,240.641357 
	C197.896301,237.756699 200.004700,236.803528 202.461319,236.380325 
	C205.929825,235.782806 209.385178,235.854095 212.840912,236.561127 
	C215.442703,237.093445 217.198776,238.533981 217.031631,241.250992 
	C216.863693,243.981201 214.960495,245.266464 212.276886,245.299271 
	C209.125885,245.337769 205.974167,245.318222 202.366852,245.304779 
z"/>
<path fill="#000000" opacity="1.000000" stroke="none" 
	d="
M208.797028,222.974899 
	C206.049652,222.806747 203.720612,222.785049 201.445694,222.423111 
	C199.003738,222.034592 197.661148,220.428680 197.805145,217.892944 
	C197.935333,215.600250 199.376938,214.027786 201.517532,213.890823 
	C205.467346,213.638062 209.458969,213.655518 213.408081,213.926270 
	C215.593521,214.076096 216.930435,215.778610 217.046280,218.004883 
	C217.152451,220.045441 215.946976,221.535202 214.101929,222.159027 
	C212.565109,222.678635 210.866257,222.718964 208.797028,222.974899 
z"/>
<path fill="#000000" opacity="1.000000" stroke="none" 
	d="
M160.981903,276.578613 
	C162.361008,273.953400 164.249115,273.231445 166.569290,274.054718 
	C168.745499,274.826843 169.348480,276.682434 169.331055,278.829254 
	C169.304230,282.131439 169.400192,285.438019 169.259995,288.734894 
	C169.145355,291.431122 167.578064,293.130981 164.855789,293.046814 
	C162.408905,292.971191 160.856796,291.331268 160.778351,288.881531 
	C160.651733,284.926941 160.804810,280.963379 160.981903,276.578613 
z"/>
<path fill="#000000" opacity="1.000000" stroke="none" 
	d="
M169.203430,192.562775 
	C169.282883,196.494125 169.349411,199.982208 169.285217,203.467896 
	C169.235977,206.140976 167.907516,208.043564 165.140610,208.122696 
	C162.056412,208.210907 160.758514,206.169846 160.703613,203.285995 
	C160.646729,200.297546 160.706924,197.306992 160.665237,194.318085 
	C160.632431,191.966614 161.259445,189.901230 163.669022,189.141510 
	C166.349411,188.296402 168.114975,189.647659 169.203430,192.562775 
z"/>
</svg>