<?xml version="1.0" encoding="UTF-8"?>
<svg xmlns="http://www.w3.org/2000/svg" version="1.1" viewBox="0 0 1920 414.3">
  <defs>
    <style>
      .cls-1 {
        fill: none;
      }

      .cls-2 {
        fill: #8c1c44;
        fill-rule: evenodd;
      }
    </style>
  </defs>
  <!-- Generator: Adobe Illustrator 28.7.1, SVG Export Plug-In . SVG Version: 1.2.0 Build 142)  -->
  <g>
    <g id="Layer_1">
      <path class="cls-1" d="M0-385"/>
      <path class="cls-2" d="M948,58c0,56,0,58-1.9,58s-5.6-3.7-10.2-8.3c-15.5-15.4-29.8-20.7-56.2-20.7-26.2,0-47.8,8.7-64.2,26.1-14.1,14.9-22.5,33.1-27.2,58.9-2.5,13.5-2.5,52.5,0,65.7,6.4,34.2,20.3,57.8,42.2,71.9,25.4,16.3,64.8,17.5,89.4,2.6,6.9-4.2,16.7-13.4,21.1-19.8,2.2-3.2,3.4-4.1,4.9-3.7,1.9.5,2,1.3,2,14.9v14.4h57V0h-57v58M105.7,24.2c-1.4,4-23.7,68.7-49.7,143.8C30,243.1,7.7,307.5,6.4,311.2l-2.3,6.8h61.8l11.3-34.5,11.3-34.5,57.4.3,57.4.3,11.1,34.2,11.1,34.2h31.7s31.7,0,31.7,0l-2.8-8.2c-3.6-10.4-98.5-285.1-100.1-289.5l-1.2-3.2h-76.6l-2.5,7.2M130,121.2c-7.2,22.1-15.6,47.9-18.7,57.2s-5.8,17.6-6,18.2c-.4,1,8.1,1.2,40.2,1.2h40.7l-.7-2.2c-.4-1.2-9-27.6-19.1-58.5-17.6-53.5-18.6-56.2-20.9-56.2s-3.1,2.1-15.5,40.2M397.5,89.4c-18.7,3.9-31.2,9.7-44.8,20.4-27.3,21.7-41,56.7-39.4,100.6,1.7,49.3,22.2,83.8,60.3,101.7,29.8,14,73.7,14.2,100.9.6,13.8-6.9,25.4-17.4,34.4-31.1,5.4-8.3,11.8-23.4,10.5-24.7-2.5-2.4-39.6-21.9-41.8-21.9s-2.9.7-3.7,2.8c-6.3,15.5-13.1,24.1-23.5,29.5-19.7,10.2-44.4,7.9-59.1-5.5-14.2-13-20.8-37.5-18.3-68.1,1.7-20.9,6.1-33.3,15.5-43.4,9.3-10,19.9-14.2,36.1-14.2s22.3,2.6,28.2,6.3c5.4,3.4,13.4,12.4,16.8,19.1,2.4,4.6,3.4,5.6,5.6,5.6,1.8,0,8.7-4.4,21.5-13.6,10.4-7.5,19-14,19.2-14.6.7-2-6.8-15.4-12.2-21.9-12.8-15.4-31.1-24.8-56.7-28.9-3.6-.6-13.7-1-22.5-1-12.7,0-18.2.5-27,2.4M622.5,88.4c-25.6,4.3-49.2,15.6-66.1,31.9l-7.6,7.3,12.2,18.2c9.8,14.7,12.6,18.2,14.4,18.2s4.1-1.9,7.2-5.1c9.7-9.9,26.9-19.7,41.1-23.4,9.3-2.4,23.7-2.9,32-1.2,13.4,2.9,19.3,9.1,19.3,20.4,0,15.2-8.9,21.1-42.3,27.4-41.7,7.9-58.4,14.5-72.4,28.4-12.5,12.4-16.9,25.4-16,47.3.9,20.8,5.9,33.4,18.2,45.6,10.9,10.9,22.7,16,43.2,18.6,14.6,1.9,32.3-.8,45-6.8,8.8-4.2,20.1-15.1,24.7-24,1.2-2.3,2.4-3.2,4.2-3.2s2.5.6,2.5,1.2c0,3.1,6.1,13.7,10.4,18.1,5.4,5.5,14.2,9.9,23.1,11.6,12.8,2.4,32,.6,42-3.8l4.5-2-.5-4.8c-.3-2.7-1.3-11.8-2.2-20.3l-1.7-15.5-3.5.2c-1.9,0-5.8.3-8.7.5-6.2.3-9.8-1.4-12.2-5.6-1.5-2.7-1.7-9.7-2.2-64-.6-67.4-.4-65.5-7.3-80-8.4-17.6-22.9-28.4-45.3-33.6-11.4-2.6-43.6-3.5-55.8-1.5M1144.7,88.5c-33.8,6.4-59.5,25.3-74.1,54.4-4.5,8.9-9.3,25.2-11.1,37.3-2.5,16.7-1.5,45.4,1.9,59.8,10.9,46.1,38.4,72.2,85,80.7,11.1,2,38.6,2.2,49.6.3,23.4-4,41.8-14.2,56.5-31.3,5.4-6.2,13.7-19.6,12.9-20.8-1.1-1.8-38.3-24.9-40.1-24.9s-3,1.8-5.1,5.3c-6.7,11.2-19.6,20.2-32.3,22.7-8.3,1.6-24.5,1.4-32.4-.5-14-3.3-25.7-12.2-31.5-24-3.2-6.5-7.1-20.9-7.1-26.3v-3.2s72.7,0,72.7,0c69.8,0,72.8,0,75.2-1.9l2.5-1.9v-21.8c0-16-.5-24.2-1.8-30.9-7.1-38.5-28.1-61.6-64.6-71.1-8.3-2.2-12.3-2.6-29.1-2.9-14.4-.3-21.5,0-27.3,1.1M1421.1,88.5c-9.9,2.2-15.3,4.3-21,7.9-6.6,4.2-15.9,13.3-20.8,20.3-6,8.7-6.8,7.6-7.1-10.4l-.3-15.2h-54.9v227h56.9l.4-69.2c.4-76,.5-76.1,6.7-89.5,8-17.1,25.3-25.7,46.2-23.2,11.4,1.4,18.1,6,22.6,15.7l2.7,5.7.3,80.2.3,80.2h57.8l.4-69.2c.3-60.3.6-70.1,2-76.2,3.8-15.8,12.5-28,23.6-33,11-4.9,29-5.2,37.9-.7,5.2,2.7,10.4,8.9,12.7,15.3,1.8,5,1.9,9.6,2.2,84.5l.3,79.2h57.9v-78.4c0-83.2-.4-92.9-4.6-107.4-3.6-12.4-7.7-19.7-15.9-27.8-7.7-7.7-15.3-11.9-27-15.1-10.1-2.7-37-2.7-47,0-17.2,4.7-31.3,14.9-40.5,29.5-6,9.4-7.3,9.4-12.5-.5-7.3-13.9-18.8-23.3-35-28.4-9.2-2.9-34.5-3.7-44.4-1.5M1683.4,97.2c1.3,3.4,21.6,56.1,45.1,117.1,33.4,86.6,42.6,111.5,42.2,113.7-1.3,6.5-8.2,18.5-14.1,24.5-9.2,9.3-14,10.9-33.5,10.9-14,0-16.2-.3-22.5-2.5-7.6-2.7-10.1-2.7-10.9-.1-.7,2.5-8.6,43.4-8.6,44.8s8.9,4.5,17.5,6.4c15.5,3.4,42.7,2.9,57.4-1.1,28.8-7.9,49.4-30.4,66.1-72.4,6.8-17.2,93-245.6,93-246.5s-10.2-.9-29.1-.7l-29.1.3-25.9,74.5c-32.2,92.5-28.6,83.2-31.2,82.8-1.8-.3-5.7-10.5-30.1-79l-28-78.7h-30.2s-30.2,0-30.2,0l2.4,6.2M1153,133.4c-6.9,2.1-9.1,3.1-14.3,6.9-5.5,4-11.7,11.8-14.7,18.6-2.1,4.7-5.9,17.6-5.9,19.9s9.7,1.3,47.1,1.3h47.1l-.6-7.2c-1.5-19.6-10.4-33-25.2-38.3-6.5-2.3-27-3-33.5-1M881.1,137.6c-17.2,4.6-28.8,18.3-33.1,39.3-3.9,19.3-3.5,43,1,60,5.9,21.8,19.5,33.9,41.1,36.3,20.2,2.3,36.6-4.8,46.3-20,7.6-11.9,10.4-22.2,11.3-42.2.9-19.8-2-37.7-8.3-50-3.1-6.1-11.6-15.3-17.1-18.5-10.5-6.2-28.3-8.2-41.2-4.8M669,208.5c-4.8,3.4-13,5.9-30.1,9.4-23,4.6-31.8,9.7-36,20.9-4.1,10.9-1.1,26.5,6.4,32.8,7.1,5.9,10.2,6.8,23.6,6.8s13-.2,18.3-2.7c7.5-3.5,15.7-11.4,19.1-18.2,4.4-9,5.6-16.5,5.7-34.2,0-13.8-.2-16.2-1.6-16.8-1.9-.7-1.3-1-5.4,1.9"/>
    </g>
  </g>
</svg>