<svg version="1.1" id="Layer_1" xmlns="http://www.w3.org/2000/svg" xmlns:xlink="http://www.w3.org/1999/xlink" x="0px" y="0px"
	 width="100%" viewBox="0 0 225 225" enable-background="new 0 0 225 225" xml:space="preserve">
<path fill="#8C0B42" opacity="1.000000" stroke="none" 
	d="
M70.000000,226.000000 
	C47.011452,226.000000 24.022900,226.000000 1.017175,226.000000 
	C1.017175,151.048782 1.017175,76.097572 1.017175,1.073179 
	C75.913818,1.073179 150.827728,1.073179 225.870819,1.073179 
	C225.870819,75.876343 225.870819,150.752991 225.870819,226.000000 
	C181.313126,226.000000 136.625214,226.000000 91.454948,225.616272 
	C96.724594,206.912262 102.476608,188.591965 108.263390,170.160934 
	C121.627205,175.127396 134.607910,179.951492 147.887680,184.886719 
	C157.039948,141.023575 175.433594,101.394638 197.792435,63.340374 
	C165.976791,85.936279 148.125961,118.715576 131.666382,152.766113 
	C126.245377,150.799347 121.005341,148.898224 115.357735,146.849243 
	C123.680984,118.902657 131.889282,91.342041 140.204285,63.423164 
	C143.666199,65.548889 146.563202,67.327751 150.266159,69.601486 
	C148.195709,51.380699 146.239838,34.168224 144.289383,17.003426 
	C132.985504,29.875948 121.627785,42.809776 110.049278,55.995033 
	C113.780037,56.884556 117.350891,57.735950 121.299850,58.677498 
	C112.775879,85.848145 104.260719,112.990707 95.698578,140.283051 
	C90.239822,138.527847 85.344498,136.960632 80.456596,135.370621 
	C80.012871,135.226288 79.616798,134.935486 79.239578,134.734528 
	C84.878181,96.537949 88.334702,58.559410 75.377266,21.292612 
	C72.566269,43.288212 70.359673,65.238754 66.816063,86.971291 
	C63.239025,108.908859 56.953232,130.235687 48.215668,151.194778 
	C61.834156,155.359665 75.054382,159.402740 88.592293,163.542969 
	C82.305542,184.662048 76.152771,205.331024 70.000000,226.000000 
z"/>
<path fill="#FDFCFD" opacity="1.000000" stroke="none" 
	d="
M70.468536,226.000000 
	C76.152771,205.331024 82.305542,184.662048 88.592293,163.542969 
	C75.054382,159.402740 61.834156,155.359665 48.215668,151.194778 
	C56.953232,130.235687 63.239025,108.908859 66.816063,86.971291 
	C70.359673,65.238754 72.566269,43.288212 75.377266,21.292612 
	C88.334702,58.559410 84.878181,96.537949 79.239578,134.734528 
	C79.616798,134.935486 80.012871,135.226288 80.456596,135.370621 
	C85.344498,136.960632 90.239822,138.527847 95.698578,140.283051 
	C104.260719,112.990707 112.775879,85.848145 121.299850,58.677498 
	C117.350891,57.735950 113.780037,56.884556 110.049278,55.995033 
	C121.627785,42.809776 132.985504,29.875948 144.289383,17.003426 
	C146.239838,34.168224 148.195709,51.380699 150.266159,69.601486 
	C146.563202,67.327751 143.666199,65.548889 140.204285,63.423164 
	C131.889282,91.342041 123.680984,118.902657 115.357735,146.849243 
	C121.005341,148.898224 126.245377,150.799347 131.666382,152.766113 
	C148.125961,118.715576 165.976791,85.936279 197.792435,63.340374 
	C175.433594,101.394638 157.039948,141.023575 147.887680,184.886719 
	C134.607910,179.951492 121.627205,175.127396 108.263390,170.160934 
	C102.476608,188.591965 96.724594,206.912262 90.986290,225.616272 
	C84.312355,226.000000 77.624710,226.000000 70.468536,226.000000 
z"/>
</svg>